<svg width="50" height="51" viewBox="0 0 50 51" fill="none" xmlns="http://www.w3.org/2000/svg">
<path d="M1.6344 48.5349L4.95225 36.3953C2.91242 32.83 1.8423 28.7921 1.84854 24.6842C1.82403 11.7344 12.2742 1.21679 25.1187 1.21679C31.3506 1.21679 37.2033 3.64908 41.6112 8.08527C46.0191 12.5215 48.4352 18.4119 48.4352 24.6842C48.4352 37.6108 37.9863 48.1297 25.1419 48.1297C21.2473 48.1347 17.4153 47.1499 14.0054 45.2677L1.6344 48.5349ZM14.5511 41.0457L15.2619 41.4754C18.2436 43.2522 21.6493 44.1914 25.12 44.1942C35.783 44.1942 44.4801 35.4405 44.4801 24.7087C44.4801 19.5087 42.4664 14.5963 38.8171 10.9227C35.1651 7.25171 30.2838 5.20007 25.1174 5.20007C14.4298 5.20007 5.7327 13.9537 5.7327 24.6855C5.7327 28.3591 6.75179 31.9604 8.6958 35.0598L9.14601 35.8005L7.17878 43.0032L14.5485 41.047L14.5511 41.0457Z" fill="white"/>
<path d="M2.44067 47.7232L5.63985 35.9902C3.66716 32.5489 2.62957 28.651 2.6303 24.6842C2.6303 12.2118 12.7258 2.05164 25.1187 2.05164C31.1378 2.05164 36.7776 4.41296 41.0423 8.6814C43.1382 10.7847 44.7988 13.2807 45.9292 16.0267C47.0597 18.7726 47.6377 21.7146 47.6303 24.6842C47.6303 37.1579 37.5361 47.3181 25.1419 47.3181C21.3751 47.3181 17.678 46.3632 14.3834 44.5516L2.44067 47.7232V47.7232Z" fill="url(#paint0_linear_4608_11232)"/>
<path d="M1.6344 48.5349L4.95225 36.3953C2.91242 32.83 1.8423 28.7921 1.84854 24.6842C1.82403 11.7344 12.2742 1.21679 25.1187 1.21679C31.3506 1.21679 37.2033 3.64908 41.6112 8.08527C46.0191 12.5215 48.4352 18.4119 48.4352 24.6842C48.4352 37.6108 37.9863 48.1297 25.1419 48.1297C21.2473 48.1347 17.4153 47.1499 14.0054 45.2677L1.6344 48.5349ZM14.5511 41.0457L15.2619 41.4754C18.2436 43.2522 21.6493 44.1914 25.12 44.1942C35.783 44.1942 44.4801 35.4405 44.4801 24.7087C44.4801 19.5087 42.4664 14.5963 38.8171 10.9227C35.1651 7.25171 30.2838 5.20007 25.1174 5.20007C14.4298 5.20007 5.7327 13.9537 5.7327 24.6855C5.7327 28.3591 6.75179 31.9604 8.6958 35.0598L9.14601 35.8005L7.17878 43.0032L14.5485 41.047L14.5511 41.0457Z" fill="url(#paint1_linear_4608_11232)"/>
<path fill-rule="evenodd" clip-rule="evenodd" d="M19.3125 14.8583C18.8868 13.8802 18.412 13.857 18.0096 13.857C17.6535 13.8325 17.2743 13.8325 16.8718 13.8325C16.4925 13.8325 15.8527 13.9757 15.3083 14.5718C14.7627 15.168 13.2701 16.5757 13.2701 19.4622C13.2701 22.3474 15.3561 25.1384 15.6399 25.5191C15.9237 25.901 19.6685 32.0069 25.5921 34.3682C30.5212 36.3231 31.517 35.9424 32.5839 35.8224C33.6494 35.7037 36.0191 34.416 36.517 33.0314C36.9905 31.6727 36.9905 30.4804 36.8486 30.2417C36.7067 30.003 36.3029 29.8598 35.734 29.5501C35.1419 29.2636 32.2988 27.8339 31.7531 27.6417C31.2087 27.4507 30.8295 27.3552 30.4502 27.9281C30.071 28.5243 28.9577 29.8365 28.6017 30.2172C28.2701 30.5991 27.9154 30.6469 27.3465 30.3604C26.7531 30.0753 24.8826 29.4546 22.6535 27.4507C20.9249 25.901 19.764 23.9694 19.4079 23.3965C19.0764 22.8003 19.3602 22.4906 19.6685 22.2042C19.9291 21.9422 20.2619 21.5126 20.5457 21.1784C20.8295 20.8442 20.9237 20.5822 21.1378 20.2003C21.3274 19.8196 21.232 19.4609 21.0901 19.1757C20.9482 18.9125 19.8336 16.0273 19.3125 14.8583Z" fill="white"/>
<defs>
<linearGradient id="paint0_linear_4608_11232" x1="25.031" y1="47.7207" x2="25.031" y2="2.0426" gradientUnits="userSpaceOnUse">
<stop stop-color="#20B038"/>
<stop offset="1" stop-color="#60D66A"/>
</linearGradient>
<linearGradient id="paint1_linear_4608_11232" x1="25.0309" y1="48.54" x2="25.0309" y2="1.22324" gradientUnits="userSpaceOnUse">
<stop stop-color="#F9F9F9"/>
<stop offset="1" stop-color="white"/>
</linearGradient>
</defs>
</svg>