<?xml version="1.0" encoding="UTF-8"?>
<svg xmlns="http://www.w3.org/2000/svg" xmlns:xlink="http://www.w3.org/1999/xlink" width="677.6pt" height="155.2pt" viewBox="0 0 677.6 155.2" version="1.1">
<defs>
<clipPath id="clip1">
  <path d="M 138 0 L 675 0 L 675 155.199219 L 138 155.199219 Z M 138 0 "/>
</clipPath>
</defs>
<g id="surface1">
<path style=" stroke:none;fill-rule:evenodd;fill:rgb(13.719177%,12.156677%,12.547302%);fill-opacity:1;" d="M 11.359375 76.523438 C 11.34375 42.992188 38.523438 15.800781 72.078125 15.800781 C 105.613281 15.828125 132.800781 43.019531 132.785156 76.523438 C 132.828125 110.082031 105.628906 137.253906 72.074219 137.261719 C 38.523438 137.253906 11.335938 110.0625 11.359375 76.523438 Z M 72.078125 4.46875 C 32.261719 4.46875 0.0117188 36.738281 0.0273438 76.523438 C 0.0078125 116.316406 32.261719 148.582031 72.074219 148.59375 C 111.890625 148.582031 144.164063 116.339844 144.109375 76.523438 C 144.128906 36.769531 111.875 4.503906 72.078125 4.46875 Z M 72.078125 4.46875 "/>
<path style=" stroke:none;fill-rule:evenodd;fill:rgb(44.309998%,74.804688%,26.660156%);fill-opacity:1;" d="M 66.992188 76.539063 C 66.988281 79.34375 69.261719 81.621094 72.070313 81.621094 C 74.878906 81.621094 77.15625 79.347656 77.152344 76.539063 C 77.152344 73.734375 74.875 71.460938 72.070313 71.460938 C 69.261719 71.460938 66.984375 73.730469 66.992188 76.539063 Z M 66.992188 76.539063 "/>
<path style=" stroke:none;fill-rule:evenodd;fill:rgb(44.309998%,74.804688%,26.660156%);fill-opacity:1;" d="M 103.058594 35.480469 C 97.972656 26.683594 86.722656 23.664063 77.921875 28.746094 C 75.542969 30.121094 73.59375 31.949219 72.105469 34.050781 C 70.617188 31.949219 68.667969 30.121094 66.289063 28.746094 C 57.488281 23.664063 46.230469 26.683594 41.152344 35.484375 C 36.070313 44.285156 39.085938 55.539063 47.886719 60.617188 C 47.886719 60.617188 59.96875 67.59375 66.089844 71.128906 C 67.269531 69.738281 68.921875 68.773438 70.804688 68.464844 L 70.804688 68.335938 L 70.800781 68.332031 C 70.777344 65.011719 69.867188 61.910156 68.292969 59.242188 L 68.207031 59.101563 L 68.339844 58.996094 C 69.695313 57.933594 70.914063 56.664063 71.949219 55.203125 L 72.105469 54.976563 L 72.261719 55.203125 C 73.292969 56.660156 74.511719 57.933594 75.863281 58.996094 L 75.996094 59.097656 L 75.914063 59.242188 C 74.320313 61.953125 73.402344 65.101563 73.402344 68.46875 L 73.402344 68.476563 C 75.269531 68.796875 76.90625 69.769531 78.074219 71.152344 L 96.320313 60.617188 C 105.121094 55.539063 108.136719 44.28125 103.058594 35.480469 Z M 103.058594 35.480469 "/>
<path style=" stroke:none;fill-rule:evenodd;fill:rgb(44.309998%,74.804688%,26.660156%);fill-opacity:1;" d="M 21.023438 70.230469 C 15.941406 79.03125 18.957031 90.285156 27.757813 95.363281 C 30.136719 96.738281 32.691406 97.515625 35.261719 97.753906 C 34.183594 100.089844 33.570313 102.695313 33.578125 105.441406 C 33.574219 115.601563 41.8125 123.84375 51.976563 123.839844 C 62.140625 123.839844 70.378906 115.605469 70.375 105.441406 C 70.375 105.441406 70.375 91.492188 70.375 84.421875 C 68.585938 84.097656 66.917969 83.144531 65.714844 81.671875 L 65.601563 81.738281 L 65.601563 81.742188 C 62.738281 83.421875 60.507813 85.761719 58.984375 88.460938 L 58.898438 88.601563 L 58.742188 88.539063 C 57.148438 87.898438 55.4375 87.476563 53.65625 87.3125 L 53.382813 87.289063 L 53.496094 87.042969 C 54.246094 85.417969 54.738281 83.726563 54.984375 82.023438 L 55.007813 81.859375 L 55.171875 81.859375 C 58.3125 81.886719 61.503906 81.101563 64.414063 79.417969 L 64.421875 79.414063 C 63.769531 77.640625 63.789063 75.734375 64.40625 74.03125 L 46.15625 63.496094 C 37.355469 58.414063 26.105469 61.429688 21.023438 70.230469 Z M 21.023438 70.230469 "/>
<path style=" stroke:none;fill-rule:evenodd;fill:rgb(44.309998%,74.804688%,26.660156%);fill-opacity:1;" d="M 92.132813 123.902344 C 102.292969 123.902344 110.535156 115.660156 110.53125 105.503906 C 110.535156 102.753906 109.925781 100.152344 108.847656 97.808594 C 111.414063 97.578125 113.972656 96.796875 116.347656 95.425781 C 125.148438 90.34375 128.167969 79.089844 123.082031 70.289063 C 118 61.488281 106.75 58.46875 97.949219 63.554688 C 97.949219 63.554688 85.867188 70.527344 79.746094 74.0625 C 80.359375 75.78125 80.371094 77.695313 79.695313 79.472656 L 79.8125 79.542969 C 82.699219 81.179688 85.84375 81.945313 88.9375 81.914063 L 89.105469 81.910156 L 89.125 82.085938 C 89.371094 83.78125 89.863281 85.472656 90.609375 87.101563 L 90.726563 87.351563 L 90.457031 87.378906 C 88.675781 87.535156 86.960938 87.960938 85.363281 88.597656 L 85.210938 88.660156 L 85.128906 88.511719 C 83.578125 85.78125 81.304688 83.410156 78.394531 81.726563 L 78.382813 81.722656 C 77.175781 83.175781 75.515625 84.109375 73.734375 84.429688 L 73.734375 105.503906 C 73.730469 115.660156 81.96875 123.902344 92.132813 123.902344 Z M 92.132813 123.902344 "/>
<g clip-path="url(#clip1)" clip-rule="nonzero">
<path style=" stroke:none;fill-rule:evenodd;fill:rgb(13.719177%,12.156677%,12.547302%);fill-opacity:1;" d="M 373.585938 42.351563 C 377.296875 34.394531 371.902344 24.074219 361.871094 24.074219 L 298.40625 24.074219 C 280.769531 24.074219 263.390625 34.5625 255.421875 51.660156 L 289.914063 51.660156 L 293.410156 44.160156 C 294.800781 41.175781 298.1875 37.871094 303.316406 37.867188 L 336.589844 37.871094 C 338.976563 37.871094 340.058594 40.28125 339.238281 42.035156 L 332.5625 56.339844 C 331.300781 59.0625 328.582031 60.289063 326.347656 60.289063 L 273.925781 60.289063 C 259.429688 60.289063 247.429688 68.902344 241.976563 80.558594 L 236.167969 92.972656 C 230.035156 106.09375 239.695313 120.652344 253.5625 120.652344 L 337.074219 120.652344 Z M 311.9375 100.550781 C 310.316406 104.0625 306.628906 106.851563 302.035156 106.851563 L 269.429688 106.851563 C 267.039063 106.851563 265.308594 104.421875 266.398438 102.089844 L 276.558594 80.351563 C 278.746094 75.605469 283.375 74.089844 286.453125 74.089844 L 324.292969 74.089844 Z M 208.792969 24.074219 L 202.359375 37.871094 L 217.011719 37.871094 L 173.238281 131.722656 C 171.179688 136.15625 166.046875 141.347656 158.125 141.339844 L 144.613281 141.347656 L 138.179688 155.144531 L 167.441406 155.144531 C 182.285156 155.144531 200.308594 147.652344 209.257813 128.464844 L 257.9375 24.074219 Z M 507.84375 102.089844 L 537.789063 37.871094 L 556.757813 37.871094 L 563.191406 24.074219 L 544.222656 24.074219 L 555.480469 -0.0703125 L 520.988281 -0.0703125 L 509.730469 24.074219 L 499.382813 24.074219 L 492.949219 37.871094 L 503.296875 37.871094 L 477.609375 92.960938 C 471.582031 105.878906 480.964844 120.652344 495.203125 120.652344 L 518.15625 120.652344 L 524.589844 106.851563 L 510.875 106.851563 C 508.605469 106.851563 506.734375 104.464844 507.84375 102.089844 Z M 661.953125 24.074219 L 602.34375 24.074219 C 584.59375 24.074219 567.132813 34.117188 558.953125 51.660156 L 539.703125 92.9375 C 533.628906 105.964844 543.0625 120.652344 557.28125 120.652344 L 611.472656 120.652344 C 627.242188 120.652344 641.480469 111.378906 647.941406 97.472656 L 673.625 42.441406 C 677.667969 33.773438 671.292969 24.074219 661.953125 24.074219 Z M 639.316406 42.035156 L 612.03125 100.554688 C 610.359375 104.144531 606.621094 106.851563 602.121094 106.855469 L 572.960938 106.855469 C 570.585938 106.867188 568.863281 104.371094 569.933594 102.089844 L 596.9375 44.171875 C 598.648438 40.503906 602.433594 37.871094 606.847656 37.871094 L 636.671875 37.871094 C 638.839844 37.871094 640.214844 40.121094 639.316406 42.035156 Z M 390.570313 102.089844 L 417.574219 44.171875 C 419.601563 39.824219 423.78125 37.871094 427.484375 37.871094 L 450.414063 37.871094 C 452.609375 37.871094 453.957031 40.121094 453.0625 42.035156 L 448.574219 51.660156 L 483.066406 51.660156 L 487.367188 42.441406 C 491.722656 33.109375 484.386719 24.074219 475.699219 24.074219 L 422.984375 24.074219 C 405.320313 24.074219 387.851563 33.941406 379.589844 51.660156 L 360.335938 92.960938 C 354.519531 105.421875 363.054688 120.652344 377.929688 120.652344 L 457.796875 120.652344 L 464.230469 106.851563 L 393.625 106.851563 C 391.234375 106.851563 389.492188 104.390625 390.570313 102.089844 Z M 390.570313 102.089844 "/>
</g>
</g>
</svg>
